<svg width="70" height="10" viewBox="0 0 70 10" fill="none" xmlns="http://www.w3.org/2000/svg">
<path d="M-55 9L-51 5L-55 1" stroke="#285472" stroke-width="2" stroke-linecap="round" stroke-linejoin="round"/>
<path d="M-47 9L-43 5L-47 1" stroke="#285472" stroke-width="2" stroke-linecap="round" stroke-linejoin="round"/>
<path d="M-39 9L-35 5L-39 1" stroke="#285472" stroke-width="2" stroke-linecap="round" stroke-linejoin="round"/>
<path d="M-31 9L-27 5L-31 1" stroke="#285472" stroke-width="2" stroke-linecap="round" stroke-linejoin="round"/>
<path d="M-23 9L-19 5L-23 1" stroke="#285472" stroke-width="2" stroke-linecap="round" stroke-linejoin="round"/>
<path d="M-15 9L-11 5L-15 1" stroke="#285472" stroke-width="2" stroke-linecap="round" stroke-linejoin="round"/>
<path d="M-7 9L-3 5L-7 1" stroke="#285472" stroke-width="2" stroke-linecap="round" stroke-linejoin="round"/>
<path d="M1 9L5 5L1 1" stroke="#285472" stroke-width="2" stroke-linecap="round" stroke-linejoin="round"/>
<path d="M9 9L13 5L9 1" stroke="#285472" stroke-width="2" stroke-linecap="round" stroke-linejoin="round"/>
<path d="M17 9L21 5L17 1" stroke="#285472" stroke-width="2" stroke-linecap="round" stroke-linejoin="round"/>
<path d="M25 9L29 5L25 1" stroke="#285472" stroke-width="2" stroke-linecap="round" stroke-linejoin="round"/>
<path d="M33 9L37 5L33 1" stroke="#285472" stroke-width="2" stroke-linecap="round" stroke-linejoin="round"/>
<path d="M41 9L45 5L41 1" stroke="#285472" stroke-width="2" stroke-linecap="round" stroke-linejoin="round"/>
<path d="M49 9L53 5L49 1" stroke="#285472" stroke-width="2" stroke-linecap="round" stroke-linejoin="round"/>
<path d="M57 9L61 5L57 1" stroke="#285472" stroke-width="2" stroke-linecap="round" stroke-linejoin="round"/>
<path d="M65 9L69 5L65 1" stroke="#285472" stroke-width="2" stroke-linecap="round" stroke-linejoin="round"/>
<path d="M73 9L77 5L73 1" stroke="#285472" stroke-width="2" stroke-linecap="round" stroke-linejoin="round"/>
<path d="M81 9L85 5L81 1" stroke="#285472" stroke-width="2" stroke-linecap="round" stroke-linejoin="round"/>
<path d="M89 9L93 5L89 1" stroke="#285472" stroke-width="2" stroke-linecap="round" stroke-linejoin="round"/>
<path d="M97 9L101 5L97 1" stroke="#285472" stroke-width="2" stroke-linecap="round" stroke-linejoin="round"/>
<path d="M105 9L109 5L105 1" stroke="#285472" stroke-width="2" stroke-linecap="round" stroke-linejoin="round"/> -->
</svg>

