<?xml version="1.0" encoding="utf-8"?>
<!-- Generator: Adobe Illustrator 16.0.0, SVG Export Plug-In . SVG Version: 6.00 Build 0)  -->
<!DOCTYPE svg PUBLIC "-//W3C//DTD SVG 1.1//EN" "http://www.w3.org/Graphics/SVG/1.1/DTD/svg11.dtd">
<svg version="1.1" xmlns="http://www.w3.org/2000/svg" xmlns:xlink="http://www.w3.org/1999/xlink" x="0px" y="0px"
	 width="1020.472px" height="841.89px" viewBox="0 0 1020.472 841.89" enable-background="new 0 0 1020.472 841.89"
	 xml:space="preserve">
<g id="Layer_2">
	<g>
	</g>
</g>
<g id="Layer_1">
	<g>
		<g>
			<g>
				<rect x="38.038" y="24" fill="#74C1EC" width="946.25" height="652.813"/>
			</g>
			<g>
				<g>
					<g>
						<g>
							<path d="M615.449,90.193l143.85,167.81V90.917h27.667V338L645.923,168.553v168.837h-30.475V90.193z"/>
						</g>
					</g>
					<g>
						<g>
							<path d="M467.908,92.113h106.057v33.32H498.02v74.124h75.946v31.271H498.02v72.314h75.946v32.938H467.908V92.113z"/>
						</g>
					</g>
					<g>
						<g>
							<path d="M420.465,135.75l-24,17.467c-18.196-23.098-31.113-29.967-55-29.967c-20.904,0-38.307,6.518-52.21,23.916
								c-13.906,17.398-24.63,39.144-24.63,65.241c0,22.834,6.74,43.401,20.226,61.707C298.334,292.418,313.497,302,337.201,302
								c35.553,0,57.015-26.25,62.265-65.743h-49.859l-0.974-30.59h83.471c0,15.822-0.818,28.441-2.45,37.86
								c-1.634,9.419-5.017,19.805-10.148,31.157c-5.133,11.352-11.968,21.525-20.506,30.521s-14.034,14.33-24.659,19.92
								c-7.768,4.087-20.741,9.459-34.27,9.459c-30.794,0-55.36-12.537-73.696-37.613c-18.336-25.074-27.505-41.471-27.505-86.015
								c0-39.206,10.112-58.887,28.869-82.753s44.519-37.605,71.208-37.605c15.863,0,28.783,3.3,41.895,9.528
								C393.95,106.355,406.748,118.698,420.465,135.75z"/>
						</g>
					</g>
				</g>
				<g>
					<path fill="#FFFFFF" d="M628.698,352.167c-9.72,0.8-18.26,5.07-22.901,7.72c-9.132,5.211-15.865,11.163-24.353,26.095v-28.967
						h-37.332v262.644h40.104V437.821c0-13.468,4.589-23.639,14.046-31.87c8.704-7.576,16.63-8.498,29.511-8.498
						c0.338,0,0.639,0.018,0.926,0.047V352.167z"/>
					<g>
						<g>
							<path fill="#FFFFFF" d="M328.187,402.919c-3.685-4.653-12.305-12.753-26.471-13.419c-8.116-0.382-15.746,4.997-21.083,10.333
								c-4.542,4.542-7.417,11.167-8.167,21.111c-0.575,7.63,1.307,14.525,3.854,20.131c2.5,5.5,8.662,13.043,13.998,18.405
								c9.673,9.721,14.833,15.837,20.757,21.853c5.922,6.015,10.113,10.244,14.591,17.117c4.675,7.175,6.79,11.75,9.55,19.55
								c2.875,8.125,4.833,22.516,4.833,31.504c0,21.019-4.583,35.746-14.88,48.034c-11.475,13.694-32.61,22.206-46.815,22.206
								c-13.86,0-26.096-2.107-36.706-13.682l-0.058-40.229c7.208,11.668,23.542,17.668,34.125,15.667
								c23.751-4.49,25.825-22.099,27-34.75c0.634-6.829-3.217-19.687-6.583-24.924c-3.156-4.912-7.121-10.854-16.833-21.333
								c-7.435-8.021-14.144-15.383-19.142-20.207c-4.999-4.825-10.425-12.104-14.192-17.911c-3-4.625-6.64-17.176-7.875-22.75
								c-1.476-6.663-1.469-16.185-1.469-23.719c0-18.11,4.763-33.545,14.292-46.3c9.528-12.756,26.082-20.174,43.699-19.137
								c10.398,0.612,18.853,1.031,34.02,12.031L328.187,402.919z"/>
						</g>
					</g>
					<path fill="#FFFFFF" d="M459.965,356.62v199.13c0,12.979-10.521,23.5-23.5,23.5s-23.5-10.521-23.5-23.5V356.62h-39.167v207.706
						c0,30.56,24.216,55.333,54.089,55.333h14.988c29.873,0,54.089-24.773,54.089-55.333V356.62H459.965z"/>
					<polygon fill="#FFFFFF" points="751.715,357.167 720.336,549.657 691.965,357.167 651.215,357.167 709.132,619.658 
						730.465,619.658 791.965,357.167 					"/>
				</g>
				<g>
					<path d="M123.185,757.517c4.166,1.721,6.48,5.983,7.869,12.377c1.697,7.46,3.24,15.001,4.397,17.378h-11.727
						c-0.849-1.804-2.314-7.295-3.703-14.919c-1.543-8.114-3.935-10.655-9.335-10.655h-3.857v25.574H95.488v-62.216
						c3.935-0.737,9.489-1.312,15.275-1.312c7.483,0,22.604,0.984,22.604,17.87c0,7.705-4.629,13.361-10.184,15.656V757.517z
						 M111.535,752.68c6.48,0,10.415-4.017,10.415-10c0-8.115-5.709-9.673-9.875-9.673c-2.546,0-4.32,0.164-5.246,0.492v19.181
						H111.535z"/>
					<path d="M267.138,754.976c0,21.968-10.492,33.197-25.228,33.197c-15.661,0-24.533-13.935-24.533-32.214
						c0-18.854,9.798-32.706,25.305-32.706C259.114,723.253,267.138,738.171,267.138,754.976z M229.335,755.713
						c0,12.378,4.552,22.542,12.961,22.542c8.486,0,12.884-10.082,12.884-22.788c0-11.558-4.089-22.296-12.807-22.296
						C233.424,733.171,229.335,744.155,229.335,755.713z"/>
					<path d="M380.336,753.582c6.635,1.803,11.572,7.377,11.572,15.41c0,4.918-1.929,9.673-5.4,12.951
						c-4.012,3.853-10.646,5.902-21.216,5.902c-5.632,0-9.875-0.41-12.652-0.82v-61.97c3.395-0.737,9.258-1.312,15.044-1.312
						c7.175,0,12.267,0.984,16.355,4.017c3.549,2.541,5.786,6.722,5.786,11.886c0,5.738-3.163,11.066-9.489,13.607V753.582z
						 M368.146,749.893c6.48,0,10.338-3.688,10.338-8.853c0-6.229-4.397-8.278-9.489-8.278c-2.469,0-4.012,0.163-5.015,0.409v16.722
						H368.146z M363.98,778.419c1.157,0.246,2.546,0.327,4.552,0.327c6.172,0,11.418-2.95,11.418-10.082
						c0-7.295-5.863-9.918-11.727-9.918h-4.243V778.419z"/>
					<path d="M522.77,754.976c0,21.968-10.492,33.197-25.228,33.197c-15.661,0-24.533-13.935-24.533-32.214
						c0-18.854,9.798-32.706,25.305-32.706C514.747,723.253,522.77,738.171,522.77,754.976z M484.967,755.713
						c0,12.378,4.552,22.542,12.961,22.542c8.486,0,12.884-10.082,12.884-22.788c0-11.558-4.089-22.296-12.807-22.296
						C489.056,733.171,484.967,744.155,484.967,755.713z"/>
					<path d="M622.16,734.729h-14.658v52.543h-11.418v-52.543h-14.581v-10.492h40.657V734.729z"/>
					<path d="M705.863,724.236h11.418v63.035h-11.418V724.236z"/>
					<path d="M842.391,785.714c-2.237,1.147-7.021,2.377-13.115,2.377c-17.821,0-27.696-12.869-27.696-31.559
						c0-22.05,13.347-33.197,29.085-33.197c6.403,0,10.569,1.394,12.267,2.377l-2.237,9.836c-2.314-1.065-5.4-2.049-9.489-2.049
						c-9.798,0-17.667,7.132-17.667,22.378c0,14.263,6.866,21.886,17.59,21.886c3.549,0,7.329-0.737,9.644-1.803L842.391,785.714z"
						/>
					<path d="M953.737,736.122c-2.083-1.147-5.709-2.705-10.569-2.705c-6.018,0-8.718,3.442-8.718,6.968
						c0,4.508,2.932,6.558,10.184,10.082c9.489,4.509,13.732,10.328,13.732,18.607c0,10.984-7.792,19.017-21.602,19.017
						c-5.863,0-11.804-1.721-14.581-3.524l2.237-10.164c3.086,1.967,8.023,3.524,12.807,3.524c6.326,0,9.644-3.196,9.644-7.869
						c0-4.508-2.854-7.213-9.412-10.246c-8.949-4.099-14.504-10-14.504-18.197c0-10.328,7.638-18.279,20.444-18.279
						c5.632,0,9.952,1.394,12.729,2.869L953.737,736.122z"/>
				</g>
			</g>
		</g>
	</g>
</g>
</svg>
